<svg xmlns="http://www.w3.org/2000/svg" width="161" height="32" viewBox="0 0 161 32" fill="none">
<defs>
    <linearGradient id="silverGradient" x1="0%" y1="0%" x2="100%" y2="100%">
      <stop offset="0%" stop-color="#E0E0E0" />
      <stop offset="50%" stop-color="#C0C0C0" />
      <stop offset="100%" stop-color="#F8F8F8" />
    </linearGradient>
  </defs>
<path d="M160.168 24.588C160.168 26.1023 159.743 27.4174 158.893 28.5332C158.043 29.649 156.754 30.5125 155.028 31.1235C153.301 31.708 151.136 32.0002 148.532 32.0002C145.849 32.0002 143.524 31.6681 141.558 31.0039C139.592 30.3132 138.065 29.3568 136.975 28.1347C135.913 26.8861 135.341 25.4515 135.262 23.8309H140.522C140.681 24.681 141.106 25.4382 141.797 26.1023C142.515 26.74 143.444 27.2314 144.587 27.5768C145.756 27.9222 147.084 28.0949 148.572 28.0949C150.724 28.0949 152.344 27.8425 153.434 27.3377C154.523 26.8064 155.067 26.0094 155.067 24.9467C155.067 24.2294 154.695 23.6848 153.952 23.3128C153.234 22.9409 151.866 22.6619 149.847 22.476L145.424 22.0775C143.033 21.8649 141.146 21.4399 139.765 20.8023C138.383 20.1381 137.4 19.3411 136.816 18.4112C136.231 17.4548 135.939 16.4453 135.939 15.3826C135.939 13.8417 136.417 12.5532 137.374 11.5171C138.33 10.481 139.659 9.6973 141.359 9.16596C143.059 8.60805 145.038 8.3291 147.297 8.3291C149.634 8.3291 151.72 8.66119 153.553 9.32536C155.386 9.96297 156.847 10.8662 157.937 12.0352C159.026 13.1776 159.637 14.5059 159.77 16.0202H154.51C154.403 15.4092 154.084 14.8247 153.553 14.2668C153.048 13.6823 152.265 13.2041 151.202 12.8322C150.166 12.4337 148.771 12.2344 147.018 12.2344C145.158 12.2344 143.697 12.4735 142.634 12.9517C141.598 13.4299 141.08 14.134 141.08 15.0638C141.08 15.6483 141.399 16.153 142.036 16.5781C142.674 16.9766 143.856 17.2556 145.583 17.415L151.282 17.933C153.566 18.1456 155.346 18.5574 156.622 19.1684C157.923 19.7529 158.84 20.51 159.371 21.4399C159.903 22.3697 160.168 23.4191 160.168 24.588Z" fill="#F8F8FF"></path><path d="M115.184 26.9389L113.67 26.381L128.016 8.88667H133.994L114.826 31.442H110.004V0.757202H115.184V26.9389ZM121.6 20.2839L125.227 17.0161L134.671 31.442H128.574L121.6 20.2839Z" fill="#F8F8FF"></path><path d="M87.9032 26.9389L86.3889 26.381L100.735 8.88667H106.713L87.5446 31.442H82.7227V0.757202H87.9032V26.9389ZM94.3192 20.2839L97.9456 17.0161L107.39 31.442H101.293L94.3192 20.2839Z" fill="#F8F8FF"></path><path d="M78.7912 22.5557C78.5255 24.4154 77.7949 26.0625 76.5994 27.4971C75.4039 28.9052 73.8763 30.0077 72.0166 30.8047C70.1569 31.6017 68.0847 32.0002 65.7999 32.0002C63.1963 32.0002 60.8983 31.5087 58.9058 30.5257C56.9398 29.5162 55.3989 28.1214 54.2831 26.3414C53.1673 24.5615 52.6094 22.5025 52.6094 20.1646C52.6094 17.8268 53.1673 15.7678 54.2831 13.9878C55.3989 12.2079 56.9398 10.8264 58.9058 9.84341C60.8983 8.83387 63.1963 8.3291 65.7999 8.3291C68.0847 8.3291 70.1569 8.7276 72.0166 9.52461C73.8763 10.3216 75.4039 11.4374 76.5994 12.872C77.7949 14.2801 78.5255 15.9272 78.7912 17.8135H73.5708C73.1988 16.1132 72.3088 14.7849 70.9008 13.8284C69.4927 12.872 67.7924 12.3938 65.7999 12.3938C64.2059 12.3938 62.8111 12.7126 61.6156 13.3502C60.4201 13.9613 59.4902 14.8513 58.8261 16.0202C58.1885 17.1626 57.8696 18.5441 57.8696 20.1646C57.8696 21.7587 58.1885 23.1401 58.8261 24.3091C59.4902 25.478 60.4201 26.3813 61.6156 27.0189C62.8111 27.6299 64.2059 27.9355 65.7999 27.9355C67.819 27.9355 69.5326 27.444 70.9406 26.461C72.3487 25.478 73.2254 24.1763 73.5708 22.5557H78.7912Z" fill="#F8F8FF"></path><path d="M43.2228 8.72722L45.8131 9.20543L48.4034 8.72722V31.4419H43.2228V8.72722ZM45.8131 5.89785C44.8301 5.89785 44.0198 5.63218 43.3822 5.10084C42.7446 4.54294 42.4258 3.82563 42.4258 2.94892C42.4258 2.07222 42.7446 1.3682 43.3822 0.836858C44.0198 0.278953 44.8301 0 45.8131 0C46.8226 0 47.6329 0.278953 48.244 0.836858C48.8816 1.3682 49.2004 2.07222 49.2004 2.94892C49.2004 3.82563 48.8816 4.54294 48.244 5.10084C47.6329 5.63218 46.8226 5.89785 45.8131 5.89785Z" fill="url(#silverGradient)"></path><path d="M32.5586 0.757202H37.7392V31.442H32.5586V0.757202Z" fill="#F8F8FF"></path><path d="M0 31.4421V1.55432H5.26027V27.0187L3.66625 26.0224L23.6712 1.55432H29.3699L4.70236 31.4421H0ZM14.2266 16.4185L17.9327 12.7921L29.8082 31.4421H23.7908L14.2266 16.4185Z" fill="#F8F8FF"></path></svg>